<svg width="17" height="16" viewBox="0 0 17 16" fill="none" xmlns="http://www.w3.org/2000/svg">
<path d="M14.3399 8.324C14.2774 9.48143 13.881 10.596 13.1986 11.5329C12.5162 12.4699 11.577 13.1891 10.4946 13.6037C9.41215 14.0183 8.23279 14.1104 7.09909 13.869C5.96539 13.6276 4.92588 13.063 4.10622 12.2434C3.28656 11.4239 2.72184 10.3844 2.48032 9.25074C2.23881 8.11706 2.33084 6.9377 2.7453 5.85521C3.15975 4.77273 3.87888 3.83346 4.81576 3.15096C5.75264 2.46846 6.86715 2.07194 8.02458 2.00933C8.29458 1.99467 8.43591 2.316 8.29258 2.54467C7.81317 3.3117 7.60789 4.21858 7.71024 5.1173C7.81259 6.01602 8.21653 6.85352 8.85613 7.49312C9.49573 8.13272 10.3332 8.53665 11.2319 8.639C12.1307 8.74135 13.0375 8.53607 13.8046 8.05667C14.0339 7.91333 14.3546 8.054 14.3399 8.324Z" stroke="#0A0A0A" stroke-width="1.33333" stroke-linecap="round" stroke-linejoin="round"/>
</svg>
